# xmcd
#
# Track frame offsets:
# 150
# 11371
# 26934
# 42002
# 53437
# 74776
# 88418
# 104356
# 116285
# 138242
# 149533
# 162275
# 178918
# 198066
# 208236
# 221985
#
# Disc length: 3154 seconds
#
#
# Revision: 0
# Processed by: cddbd v1.5.2PL0 Copyright (c) Steve Scherf et al.
# Submitted via: Nero 7, 11, 10, 0 
#
DISCID=f10c5010
DTITLE=Job Striles - Routes
DYEAR=2005
DGENRE=Blues
TTITLE0=Tell Her A Lie
TTITLE1=Don't Kick The Car
TTITLE2=Hi-De-Da-Gibon
TTITLE3=Strollin' With Bone
TTITLE4=I'm Getting Older
TTITLE5=Knocked Flat
TTITLE6=On Trial With My Baby
TTITLE7=Doodle's Toodleoo
TTITLE8=She Loves Her Lovin'
TTITLE9=Mind Your Business (Mockingbird)
TTITLE10=Red Wine
TTITLE11=I'm Missing You
TTITLE12=That Spoonful
TTITLE13=The Blue Paniola Waltz
TTITLE14=Heart Shooting Pistol
TTITLE15=What Is That Thing You've Got?
EXTD=
EXTT0=Tell Her A Lie
EXTT1=Don't Kick The Car
EXTT2=Hi-De-Da-Gibon
EXTT3=Strollin' With Bone
EXTT4=I'm Getting Older
EXTT5=Knocked Flat
EXTT6=On Trial With My Baby
EXTT7=Doodle's Toodleoo
EXTT8=She Loves Her Lovin'
EXTT9=Mind Your Business (Mockingbird)
EXTT10=Red Wine
EXTT11=I'm Missing You
EXTT12=That Spoonful
EXTT13=The Blue Paniola Waltz
EXTT14=Heart Shooting Pistol
EXTT15=What Is That Thing You've Got?
PLAYORDER=
